<?xml version="1.0" standalone="no"?>
<!DOCTYPE svg PUBLIC "-//W3C//DTD SVG 20010904//EN"
 "http://www.w3.org/TR/2001/REC-SVG-20010904/DTD/svg10.dtd">
<svg version="1.0" xmlns="http://www.w3.org/2000/svg"
 width="420.000000pt" height="500.000000pt" viewBox="0 0 420.000000 500.000000"
 preserveAspectRatio="xMidYMid meet">

<g transform="translate(0.000000,500.000000) scale(0.100000,-0.100000)"
fill="#000000" stroke="none">
<path d="M103 4968 c-6 -14 -20 -58 -32 -99 -104 -372 -78 -789 71 -1149 112
-268 270 -474 567 -739 741 -661 1275 -1447 1391 -2047 25 -131 27 -330 4
-442 -32 -157 -111 -308 -221 -424 -31 -32 -53 -58 -48 -58 4 0 43 19 86 42
207 110 421 318 558 541 99 163 160 303 272 634 87 257 134 367 197 460 53 78
138 155 210 190 50 24 68 27 152 27 79 0 107 -5 164 -27 84 -33 170 -85 245
-147 88 -73 84 -72 187 -39 50 16 106 39 125 52 39 26 79 97 79 142 l0 32 -67
-14 c-162 -33 -339 47 -441 200 -32 48 -26 53 78 63 97 9 227 -8 295 -40 50
-23 55 -28 76 -86 l22 -62 33 39 c53 60 58 99 29 220 -4 17 1 23 25 32 38 13
38 25 -2 65 -58 57 -185 69 -329 31 -75 -20 -136 -18 -189 6 -55 26 -53 27
117 58 l123 23 -36 44 c-74 90 -139 113 -349 125 -241 13 -395 48 -574 130
-96 45 -247 143 -336 219 -73 62 -77 55 -40 -72 64 -225 189 -372 377 -444
l63 -25 -75 4 c-87 5 -161 28 -312 99 -60 28 -110 49 -113 47 -2 -3 1 -96 7
-207 14 -242 7 -318 -43 -419 l-33 -68 -7 124 c-27 449 -210 755 -671 1123
-79 63 -269 208 -423 323 -506 376 -688 534 -837 725 -166 214 -284 461 -333
695 -8 40 -18 82 -23 94 l-8 23 -11 -24z"/>
<path d="M265 2050 c24 -82 154 -260 258 -355 189 -174 447 -308 847 -439 96
-32 210 -77 254 -99 180 -96 292 -228 372 -442 l19 -50 3 64 c2 36 -4 101 -13
145 -32 157 -92 272 -201 380 -116 117 -207 161 -489 241 -248 70 -383 118
-533 190 -169 82 -283 160 -417 287 -77 73 -106 95 -100 78z"/>
</g>
</svg>
